<?xml version="1.0" encoding="UTF-8" standalone="no"?>
<svg
   xmlns:dc="http://purl.org/dc/elements/1.1/"
   xmlns:cc="http://creativecommons.org/ns#"
   xmlns:rdf="http://www.w3.org/1999/02/22-rdf-syntax-ns#"
   xmlns:svg="http://www.w3.org/2000/svg"
   xmlns="http://www.w3.org/2000/svg"
   xmlns:sodipodi="http://sodipodi.sourceforge.net/DTD/sodipodi-0.dtd"
   xmlns:inkscape="http://www.inkscape.org/namespaces/inkscape"
   width="210mm"
   height="297mm"
   viewBox="0 0 210 297"
   version="1.1"
   id="svg861"
   sodipodi:docname="drawing.svg"
   inkscape:version="1.0 (4035a4fb49, 2020-05-01)">
  <defs
     id="defs855" />
  <sodipodi:namedview
     id="base"
     pagecolor="#ffffff"
     bordercolor="#666666"
     borderopacity="1.0"
     inkscape:pageopacity="0.0"
     inkscape:pageshadow="2"
     inkscape:zoom="1.4142136"
     inkscape:cx="1899.6156"
     inkscape:cy="20.059929"
     inkscape:document-units="mm"
     inkscape:current-layer="layer1"
     inkscape:document-rotation="0"
     showgrid="false"
     inkscape:window-width="1920"
     inkscape:window-height="1017"
     inkscape:window-x="-8"
     inkscape:window-y="-4"
     inkscape:window-maximized="1"
     showguides="false" />
  <metadata
     id="metadata858">
    <rdf:RDF>
      <cc:Work
         rdf:about="">
        <dc:format>image/svg+xml</dc:format>
        <dc:type
           rdf:resource="http://purl.org/dc/dcmitype/StillImage" />
        <dc:title />
      </cc:Work>
    </rdf:RDF>
  </metadata>
  <g
     inkscape:label="Layer 1"
     inkscape:groupmode="layer"
     id="layer1">
    <circle
       style="opacity:0.999;fill:none;stroke:#000000;stroke-width:1;stroke-miterlimit:4;stroke-dasharray:none"
       id="path865"
       cx="417.47501"
       cy="5.3453903"
       r="17.197916" />
    <path
       style="fill:none;stroke:#000000;stroke-width:1.01446;stroke-linecap:butt;stroke-linejoin:miter;stroke-miterlimit:4;stroke-dasharray:none;stroke-opacity:1"
       d="m 421.72788,-11.056541 c 6.14212,-9.530187 13.32368,-26.84012 22.1116,-19.935597 8.78795,6.904524 -20.88317,17.601673 -17.38688,21.6860395"
       id="path1430" />
    <path
       style="fill:none;stroke:#000000;stroke-width:0.997216;stroke-linecap:butt;stroke-linejoin:miter;stroke-miterlimit:4;stroke-dasharray:none;stroke-opacity:1"
       d="m 416.60926,-12.101746 c 0.8215,-9.165719 -0.30806,-24.730148 8.00979,-21.963139 8.31786,2.76701 -7.5589,20.540535 -2.32171,22.702262"
       id="path1432"
       sodipodi:nodetypes="csc" />
    <path
       style="fill:none;stroke:#000000;stroke-width:1;stroke-linecap:butt;stroke-linejoin:round;stroke-miterlimit:4;stroke-dasharray:none;stroke-opacity:1"
       d="m 407.57266,5.5191156 17.67988,4.2094951 C 423.95543,11.351757 407.93282,21.18224 407.57266,5.5191156 Z"
       id="path1448"
       sodipodi:nodetypes="ccc" />
    <ellipse
       style="opacity:0.999;fill:none;stroke:#000000;stroke-width:1;stroke-miterlimit:4;stroke-dasharray:none"
       id="path1450"
       cx="414.77554"
       cy="-4.443356"
       rx="3.0869629"
       ry="3.3208239" />
    <ellipse
       ry="3.3208239"
       rx="3.0869632"
       cy="-1.6837978"
       cx="423.84937"
       id="path1450-6"
       style="opacity:0.999;fill:none;stroke:#000000;stroke-width:1;stroke-miterlimit:4;stroke-dasharray:none" />
    <circle
       style="opacity:0.999;fill:#de8787;stroke:none;stroke-width:1;stroke-linecap:butt;stroke-linejoin:round;stroke-miterlimit:4;stroke-dasharray:none"
       id="path1467"
       cx="403.66721"
       cy="6.8287363"
       r="1.3229166" />
    <circle
       r="1.3229166"
       cy="13.14298"
       cx="427.77823"
       id="path1467-6"
       style="opacity:0.999;fill:#de8787;stroke:none;stroke-width:1;stroke-linecap:butt;stroke-linejoin:round;stroke-miterlimit:4;stroke-dasharray:none" />
    <path
       sodipodi:nodetypes="csc"
       id="path1432-1"
       d="m 418.13469,-12.162656 c 0.41089,-6.864451 -0.25036,-14.276305 3.84086,-16.481852 6.30533,-3.399162 -4.61572,14.753649 -1.16124,17.002327"
       style="fill:none;stroke:#000000;stroke-width:0.610331;stroke-linecap:butt;stroke-linejoin:miter;stroke-miterlimit:4;stroke-dasharray:none;stroke-opacity:1" />
    <path
       id="path1430-7"
       d="m 423.55411,-10.899602 c 3.31033,-5.266083 12.64133,-21.8231 17.62825,-17.091919 4.19294,3.977919 -13.77331,9.415318 -16.01688,17.479598"
       style="fill:none;stroke:#000000;stroke-width:0.63063;stroke-linecap:butt;stroke-linejoin:miter;stroke-miterlimit:4;stroke-dasharray:none;stroke-opacity:1"
       sodipodi:nodetypes="csc" />
    <path
       style="opacity:0.999;fill:#de8787;fill-opacity:1;stroke:none;stroke-width:0.167008;stroke-linecap:butt;stroke-linejoin:round;stroke-miterlimit:4;stroke-dasharray:none"
       d="m 1599.5179,-108.86592 c -1.5035,0.0964 -2.8723,0.8345 -4.1904,1.50345 -2.9369,1.55633 -5.3002,4.04545 -6.9611,6.90288 -2.5852,4.404412 -3.7954,9.448286 -4.6287,14.44148 -1.3847,8.70374 -1.5304,17.536647 -1.8404,26.32614 -0.1463,4.301363 -0.2525,8.614853 -0.5293,12.904045 -0.1148,0.462018 0.466,0.363574 0.7501,0.401791 1.7284,0.128316 3.4456,0.321097 5.1602,0.520822 0.2742,0.05183 0.4316,-0.264881 0.2692,-0.474853 -0.5166,-1.461362 -0.6732,-3.011766 -0.6306,-4.554931 -0.057,-2.996934 0.5334,-5.963809 1.1673,-8.880672 1.827,-7.986287 4.6361,-15.68914 7.2654,-23.43728 1.695,-5.00491 3.4688,-9.9923 4.8134,-15.106205 0.6711,-2.684267 1.3857,-5.425077 1.248,-8.215187 -0.07,-0.82936 -0.254,-1.89539 -1.142,-2.22308 -0.2397,-0.0871 -0.4973,-0.11371 -0.7511,-0.1084 z"
       id="path3515"
       transform="scale(0.26458333)" />
    <path
       style="opacity:0.999;fill:#de8787;fill-opacity:1;stroke:none;stroke-width:0.334016;stroke-linecap:butt;stroke-linejoin:round;stroke-miterlimit:4;stroke-dasharray:none"
       d="m 1659.6825,-107.89024 c -4.4578,0.13232 -8.4006,2.63567 -11.8578,5.23596 -7.6877,6.011453 -13.8601,13.683574 -19.6734,21.456187 -9.04,12.2873 -17.0636,25.280487 -24.9692,38.314204 -0.2155,0.355735 -0.7091,1.01828 -0.064,1.231438 0.8797,0.39097 1.7611,0.993984 2.7405,1.041749 0.5421,-0.232428 0.4102,-1.018599 0.7072,-1.454103 2.0619,-5.385647 5.4561,-10.153089 9.4831,-14.254462 8.2913,-8.747823 18.4161,-15.435408 28.3199,-22.200644 6.5703,-4.528826 13.3798,-8.803841 19.2759,-14.21914 2.1041,-2.062184 4.3956,-4.316585 5.0383,-7.302319 0.3663,-1.69011 -0.3972,-3.39984 -1.6282,-4.54541 -1.856,-2.1083 -4.5479,-3.37819 -7.3718,-3.30346 z"
       id="path3517"
       transform="scale(0.26458333)" />
    <path
       style="opacity:0.999;fill:#000000;fill-opacity:1;stroke:none;stroke-width:0.167008;stroke-linecap:butt;stroke-linejoin:round;stroke-miterlimit:4;stroke-dasharray:none"
       d="m 1601.6748,-17.12956 c -2.1934,-0.06245 -4.3249,0.919012 -5.94,2.360303 -2.0282,1.757563 -3.3171,4.293044 -3.625,6.9519225 -0.4819,3.6107437 0.8555,7.48176498 3.6401,9.8725893 2.2748,2.0818169 5.6357,2.9397444 8.6121,2.0787875 3.5365,-0.9661793 6.2799,-4.04313182 7.1523,-7.5626499 1.0267,-3.9460919 -0.1194,-8.4843494 -3.202,-11.2284724 -1.4058,-1.31595 -3.231,-2.1898 -5.1378,-2.450385 -0.4992,-0.029 -0.9999,-0.01941 -1.4997,-0.0221 z"
       id="path3523"
       transform="scale(0.26458333)" />
    <path
       style="opacity:0.999;fill:#000000;fill-opacity:1;stroke:none;stroke-width:0.167008;stroke-linecap:butt;stroke-linejoin:round;stroke-miterlimit:4;stroke-dasharray:none"
       d="m 1567.4225,-27.570356 c -2.0108,-0.04545 -3.974,0.76963 -5.5458,1.986939 -2.8166,2.203569 -4.3654,5.847756 -4.1312,9.402206 0.1154,3.067855 1.5624,6.056733 3.9346,8.013799 2.0217,1.7036537 4.8014,2.5307769 7.42,2.0761887 3.2941,-0.49203 6.0824,-2.8985762 7.4402,-5.8842257 0.7623,-1.597891 1.0874,-3.375366 1.0328,-5.13995 -0.049,-3.813517 -2.1682,-7.630579 -5.5933,-9.407184 -1.2624,-0.698315 -2.6922,-1.081757 -4.1381,-1.047699 -0.1398,-0.0016 -0.2795,-5.19e-4 -0.4192,-7.4e-5 z"
       id="path3525"
       transform="scale(0.26458333)" />
    <ellipse
       ry="2.0404358"
       rx="1.7656493"
       cy="-1.7297636"
       cx="424.23389"
       id="path3527-2"
       style="opacity:0.999;fill:#ffffff;fill-opacity:1;stroke:none;stroke-width:1.40107;stroke-linecap:butt;stroke-linejoin:round;stroke-miterlimit:4;stroke-dasharray:none" />
    <ellipse
       style="opacity:0.999;fill:#ffffff;fill-opacity:1;stroke:none;stroke-width:1.40107;stroke-linecap:butt;stroke-linejoin:round;stroke-miterlimit:4;stroke-dasharray:none"
       id="path3527-2-6"
       cx="415.33685"
       cy="-4.3030396"
       rx="1.7656493"
       ry="2.0404358" />
    <text
       id="text848"
       y="12.473969"
       x="440.49365"
       style="font-style:normal;font-weight:normal;font-size:10.5833px;line-height:1.25;font-family:sans-serif;fill:#000000;fill-opacity:1;stroke:none;stroke-width:0.264583"
       xml:space="preserve"><tspan
         id="tspan850"
         style="font-style:normal;font-variant:normal;font-weight:normal;font-stretch:normal;font-size:12.7px;font-family:'Berlin Sans FB';-inkscape-font-specification:'Berlin Sans FB, Normal';font-variant-ligatures:normal;font-variant-caps:normal;font-variant-numeric:normal;font-variant-east-asian:normal;stroke-width:0.264583"
         y="12.473969"
         x="440.49365"
         sodipodi:role="line">Bunny 1e Stationary &amp; Gifts</tspan></text>
  </g>
</svg>
